# xmcd CD database file
#
# Track frame offsets:
#	150
#	18384
#	39302
#	60273
#	79940
#	104756
#	131735
#	148290
#	163136
#	180363
#
# Disc length: 2689 seconds
#
# Revision: 0
# Processed by: cddbd v1.5.1PL0 Copyright (c) Steve Scherf et al.
# Submitted via: CDex 1.51
#
DISCID=860a7f0a
DTITLE=Fernando Ferrer - Escúchame bien
DYEAR=2004
DGENRE=Salsa
TTITLE0=01.- Los Pollitos De Mi Barrio
TTITLE1=02.- Jose Julian
TTITLE2=03.- Enamorado Del Amor
TTITLE3=04.- El Caprichito/No Me Ignores
TTITLE4=05.- Joven Mujer
TTITLE5=06.- Guaguanco En El Solar
TTITLE6=07.- Tiene Sangre Africana
TTITLE7=08.- Testamento
TTITLE8=09.- Escuchame Bien
TTITLE9=10.- Changui Sofoca'o
EXTD=YEAR: 2004
EXTT0=
EXTT1=
EXTT2=
EXTT3=
EXTT4=
EXTT5=
EXTT6=
EXTT7=
EXTT8=
EXTT9=
PLAYORDER=
